<?xml version="1.0" standalone="no"?>
<!DOCTYPE svg PUBLIC "-//W3C//DTD SVG 20010904//EN"
 "http://www.w3.org/TR/2001/REC-SVG-20010904/DTD/svg10.dtd">
<svg version="1.0" xmlns="http://www.w3.org/2000/svg"
 width="500.000000pt" height="500.000000pt" viewBox="0 0 500.000000 500.000000"
 preserveAspectRatio="xMidYMid meet">
<metadata>
Created by potrace 1.11, written by Peter Selinger 2001-2013
</metadata>
<g transform="translate(0.000000,500.000000) scale(0.100000,-0.100000)"
fill="#000000" stroke="none">
<path d="M2292 4620 c-375 -37 -713 -155 -1014 -356 -526 -352 -865 -899 -949
-1534 -7 -52 -13 -171 -13 -265 0 -93 6 -213 13 -265 130 -979 874 -1735 1847
-1876 160 -23 438 -23 598 0 716 104 1326 546 1641 1191 105 215 174 444 206
685 16 122 16 408 0 530 -119 895 -746 1605 -1617 1830 -210 55 -508 79 -712
60z m648 -331 c0 -84 2 -99 16 -99 12 0 15 6 10 24 -3 14 -2 28 4 31 5 3 10
17 10 30 0 28 13 39 39 30 23 -7 41 -54 41 -106 0 -44 17 -62 22 -22 4 39 24
39 37 0 9 -27 16 -34 31 -30 17 4 20 0 20 -26 0 -17 4 -31 9 -31 5 0 11 -10
15 -22 6 -25 22 -16 28 17 3 15 10 19 32 17 18 -2 33 3 40 14 19 26 35 9 42
-46 9 -72 27 -62 22 13 -2 50 0 62 12 62 13 0 15 -97 18 -802 l2 -803 262 -2
c241 -3 263 -4 266 -20 3 -17 -15 -18 -263 -18 l-266 0 1 -527 c2 -886 2 -903
-15 -903 -11 0 -15 11 -15 39 0 22 -4 43 -10 46 -6 4 -10 -21 -10 -69 0 -68
-20 -180 -36 -195 -3 -3 -11 2 -18 11 -15 21 -26 13 -26 -19 0 -13 -6 -23 -14
-23 -8 0 -18 -9 -21 -21 -4 -11 -13 -18 -20 -15 -7 2 -16 -1 -19 -9 -3 -8 -23
-19 -45 -25 -29 -8 -40 -16 -43 -33 -2 -12 -10 -22 -18 -22 -12 0 -16 16 -18
73 -3 66 -5 72 -19 61 -13 -11 -18 -10 -30 6 -8 11 -17 32 -20 48 -4 18 -12
27 -24 27 -17 0 -19 13 -22 213 l-2 212 -3 -242 c-2 -208 -4 -243 -17 -243
-13 0 -15 78 -15 640 l0 640 -515 0 -515 0 0 -655 c0 -360 -2 -655 -4 -655 -2
0 -11 3 -20 6 -14 5 -16 32 -18 178 l-2 171 -6 -140 -5 -140 -46 -9 c-37 -7
-48 -14 -56 -37 -15 -38 -43 -39 -44 -1 0 25 -17 77 -18 58 -2 -17 -31 17 -31
35 0 11 -6 19 -14 19 -7 0 -17 10 -21 23 l-8 22 -4 -23 c-5 -24 -41 -49 -53
-35 -4 4 -10 51 -13 103 -5 91 -22 178 -34 166 -3 -3 -8 -20 -12 -37 -4 -18
-12 -34 -19 -37 -12 -4 -13 102 -12 1823 0 308 0 595 0 638 0 61 3 77 15 77 7
0 19 -8 24 -17 6 -10 11 -13 11 -7 0 5 6 19 14 30 14 18 15 18 25 -6 8 -22 10
-18 10 27 1 47 4 54 31 69 16 10 30 27 32 38 2 13 10 20 20 20 10 -1 20 7 23
17 4 11 12 19 20 19 7 0 15 9 18 20 7 28 27 25 27 -3 0 -13 6 -32 14 -42 12
-16 14 -11 26 48 22 118 47 102 61 -39 5 -55 13 -121 17 -149 l7 -50 5 60 c4
44 9 60 20 60 13 0 15 -79 18 -637 l2 -638 515 0 515 0 0 923 c0 508 3 927 6
930 17 17 24 -13 24 -104z"/>
</g>
</svg>
